<?xml version="1.0" encoding="utf-8"?>
<!-- Generator: Adobe Illustrator 26.0.2, SVG Export Plug-In . SVG Version: 6.00 Build 0)  -->
<svg version="1.1" id="Calque_1" xmlns="http://www.w3.org/2000/svg" xmlns:xlink="http://www.w3.org/1999/xlink" x="0px" y="0px"
	 viewBox="0 0 1366 768" style="enable-background:new 0 0 1366 768;" xml:space="preserve">
<style type="text/css">
	.st0{fill:#1A2020;}
	.st1{fill:#1E2424;}
	.st2{fill:#FEFEFE;}
</style>
<g>
	<path class="st0" d="M1205.4,362.17c0-16.24-0.01-31.56,0-46.88c0.01-11.1,5.13-16.28,16.08-16.3c7.33-0.01,14.66-0.03,21.99,0
		c10.35,0.04,15.73,5.38,15.74,15.61c0.01,18.33,0.16,36.65-0.12,54.97c-0.07,4.27,1.54,4.77,5.11,4.75
		c12.14-0.08,22.2-4.95,31.01-12.89c3.21-2.9,6.22-6.02,9.42-8.95c5.07-4.65,9.95-5.26,15.88-1.66
		c7.07,4.28,12.87,10.04,17.45,16.89c3.55,5.32,3.32,10.18-0.82,14.59c-15.96,17.01-33.86,30.94-57.7,34.96
		c-5.58,0.94-11.21,1.68-16.88,1.4c-2.55-0.13-3.43,0.53-3.4,3.24c0.14,12.99-0.08,25.99,0.11,38.98
		c0.14,9.35,4.27,12.76,13.53,12.28c6.04-0.31,11.77-1.94,17.56-3.4c7.45-1.88,13.77,1.18,16.48,8.23
		c2.2,5.71,4.18,11.51,6.01,17.34c2.16,6.87-0.76,13.55-7.93,16.87c-15.05,6.96-30.84,10.08-47.49,8.07
		c-13.86-1.68-26.55-5.9-36.55-16.19c-11.78-12.13-15.16-27.33-15.41-43.48c-0.25-16.16-0.05-32.32-0.06-48.48
		c0-2.07,0.44-3.95-2.64-4.9c-24.53-7.52-48.96-15.34-73.47-22.93c-5.56-1.72-11.31-2.65-17.2-2.59c-2.71,0.03-5.34,0.44-7.77,1.5
		c-3.95,1.72-7.4,4.18-7.56,8.98c-0.17,4.79,3.37,6.99,7.12,8.63c8.85,3.87,18.44,5.27,27.64,8c10.69,3.17,21.21,6.75,30.3,13.43
		c21.67,15.92,25.48,49.17,8.2,71.18c-12.53,15.96-29.68,23.51-49.19,26.35c-25.95,3.78-50.09-2.47-73.19-13.87
		c-7.39-3.65-9.67-10.36-6.27-17.95c1.97-4.38,4-8.73,6.08-13.07c4.05-8.46,10.99-11.23,19.78-7.63
		c12.06,4.94,24.39,8.62,37.54,8.91c4.83,0.11,9.65,0.02,14.2-1.96c4.5-1.95,8.21-4.6,8.28-10.09c0.07-5.25-3.83-7.49-7.81-9.28
		c-7.91-3.55-16.51-4.79-24.79-7.08c-11.4-3.14-22.35-7.31-32.02-14.32c-24.7-17.91-24.13-51.25-8.03-71.32
		c12.29-15.32,28.92-22.38,47.97-24.24c21.14-2.07,41.19,2.55,60.87,10.04C1176.99,353.11,1190.93,357.31,1205.4,362.17z"/>
	<path class="st0" d="M503.16,273.83c62,0.04,110.43,42.42,119.21,104.43c5.16,36.43-2.2,69.85-25.63,98.69
		c-20.52,25.27-47.48,39.53-79.87,42.89c-40.77,4.23-75.82-8.08-103.94-38.14c-18.92-20.23-28.56-44.73-30.78-72.29
		c-2.62-32.55,4.91-62.41,24.45-88.65c19.94-26.77,46.94-41.89,80.12-46.05C492.22,274.04,497.67,273.86,503.16,273.83z
		 M567.53,397.64c0.11-11.3-1.99-22.13-6.17-32.6c-17.68-44.21-74.41-54.77-105.19-19.56c-22.79,26.07-24.43,71.47-3.58,99.13
		c20.83,27.63,59.05,33.88,86.43,13.69C559.32,443.32,567.23,422.17,567.53,397.64z"/>
	<path class="st0" d="M969.11,444.27c-15.82,0-31.65,0.14-47.47-0.09c-4.44-0.06-4.94,1.29-3.85,5.21
		c4.49,16.06,21.59,28.57,38.27,27.72c15.09-0.76,29.43-4.58,43.19-10.71c8.34-3.72,15.6-0.83,18.98,7.62
		c1.47,3.69,2.93,7.39,4.34,11.1c3.15,8.29,1.06,14.38-6.7,18.95c-13.28,7.82-27.57,12.96-42.8,15.27
		c-19.7,2.98-39.19,2.08-57.98-4.95c-21.91-8.2-37.42-23.34-45.19-45.45c-9.84-28.02-9.61-56.25,2.36-83.59
		c13.2-30.14,37.62-44.8,69.81-47.53c13.56-1.15,26.9-0.05,39.78,4.66c25.93,9.48,39.79,29.19,46.33,55.02
		c2.59,10.21,3.4,20.66,3.68,31.13c0.26,9.76-5.43,15.54-15.28,15.6C1000.76,444.34,984.93,444.27,969.11,444.27z M948.75,409.27
		c6.49,0,12.99,0,19.48,0c11.35,0,12.46-1.86,7.46-12.57c-0.35-0.75-0.75-1.47-1.17-2.18c-5.94-10.14-18.23-16.31-28.55-14.34
		c-13.66,2.61-24.67,13.27-26.71,25.7c-0.44,2.66,0.32,3.48,3.03,3.43C931.1,409.18,939.93,409.27,948.75,409.27z"/>
	<path class="st0" d="M693.35,428.93c0-23.99-0.01-47.98,0.01-71.97c0.01-10.16,5.15-15.51,15.19-15.65
		c7.66-0.11,15.33-0.11,22.99,0c9.05,0.14,13.56,4.29,14.79,13.35c0.13,0.92-0.27,2.09,1.19,2.32c1.4,0.22,2.1-0.79,2.86-1.65
		c4.48-5.02,9.66-9.16,15.63-12.23c32.89-16.96,70.74,2.13,78.26,39.37c1.79,8.86,2.48,17.79,2.5,26.78
		c0.07,30.32-0.2,60.65,0.15,90.96c0.12,10.8-6.53,17.5-16.81,16.72c-7.45-0.56-14.99-0.09-22.48-0.11
		c-9.39-0.02-14.91-5.33-14.98-14.8c-0.12-15.33,0-30.66-0.04-45.98c-0.05-16.66-0.17-33.32-0.28-49.97
		c-0.01-1.33-0.09-2.68-0.34-3.97c-2.27-11.5-7.67-16.7-17.51-16.95c-11.99-0.3-23.52,7.76-26.2,18.35c-0.7,2.75-0.97,5.54-0.97,8.4
		c0.04,29.82,0.04,59.64,0.02,89.47c-0.01,10.49-5.04,15.45-15.59,15.46c-7.83,0.01-15.66,0.02-23.49,0
		c-9.29-0.03-14.86-5.54-14.87-14.91C693.32,477.58,693.35,453.26,693.35,428.93z"/>
	<path class="st1" d="M144.95,317.68c-1.62,12.67-3.05,24.71-4.72,36.71c-1.72,12.32-3.48,24.65-8.86,36.1
		c-2.01,4.28-4.55,8.11-8.28,11.06c-7.31,5.76-15.83,5.4-22.61-0.91c-6.11-5.68-9.76-12.95-13.16-20.38
		c-0.96-2.09-1.78-4.24-3.15-7.55c-2.35,6.24-4.4,11.47-6.3,16.76c-9.68,27.04-17.03,54.53-15.56,83.62
		c0.5,9.8,1.71,19.56,5.57,28.71c2.25,5.32,5.14,10.03,11.96,10.51c2.71,0.19,4.49,2.31,4.32,5.23c-0.18,2.95-2.29,4.09-4.96,4.74
		c-15.31,3.76-34.14-4.05-43.83-18.51c-9.71-14.49-11.37-30.62-8.62-47.34c4.18-25.42,17.37-45.64,36.83-62.02
		c1.87-1.58,3.01-3.28,3.83-5.54c2.99-8.25,5.89-16.55,9.44-24.56c2.15-4.84,2.56-9.36,1.18-14.36c-1.74-6.3-1.99-12.8-1.79-19.31
		c0.21-6.73,2.98-11.67,9.37-14.54c11.91-5.34,24.42-8.41,37.28-10.21c6.1-0.85,12.23-1.54,18.39-0.31
		c11.14,2.23,18.2,9.01,21.91,19.53c0.88,2.49,1.39,5.12,2.22,7.63c3.49,10.65,9.03,13.65,19.79,10.38
		c6.33-1.92,12.5-4.35,18.77-6.46c2.19-0.74,4.44-1.43,6.72-1.74c8.76-1.17,16.73,0.35,22.14,8.1c5.73,8.21,5.85,17.16,2.02,26.1
		c-3.44,8.04-9.69,13.84-16.76,18.73c-4.37,3.02-8.73,6.08-13.3,8.79c-14.68,8.7-21.69,22.2-23.47,38.5
		c-2.99,27.45-5.47,54.96-7.98,82.47c-0.4,4.39-2.26,6.26-6.54,6.25c-16.33-0.07-32.66-0.03-48.99-0.12
		c-4.68-0.03-6.61-2.07-6.44-6.83c0.44-12.15,1.03-24.3,1.55-36.45c0.18-4.15,0.77-8.29-0.33-12.42c-1.66-6.29-6.98-9.69-13.18-8.32
		c-5.21,1.15-8.46,6.95-7.24,12.94c0.13,0.64,0.37,1.27,0.6,1.89c1.16,3.13,0.51,5.85-2.66,7.01c-3.4,1.24-5.58-0.56-6.91-3.85
		c-2.95-7.29-1.19-16.83,4.7-22.63c6.04-5.96,13.28-7.2,21.17-4.39c9.01,3.2,14.17,10.7,14.05,21.32
		c-0.14,12.49-0.66,24.98-1.38,37.45c-0.21,3.69,0.89,4.53,4.31,4.4c5.82-0.24,11.66-0.12,17.49,0c2.4,0.05,3.51-0.28,3.33-3.23
		c-1.53-24.27-2.87-48.54-4.27-72.82c-0.05-0.83-0.18-1.67-0.13-2.49c0.19-3.03,1.69-5.17,4.8-5.38c3.19-0.22,4.96,1.69,5.16,4.83
		c0.64,9.8,1.22,19.61,1.8,29.42c0.91,15.29,1.79,30.59,2.69,45.88c0.11,1.91-0.32,3.82,2.94,3.91c3.27,0.08,3.86-1.31,4.1-3.99
		c2.04-22.7,4.07-45.41,6.29-68.09c1.47-15.03,4.64-29.54,14.73-41.55c5.44-6.47,12.48-10.91,19.48-15.4
		c6.16-3.96,12.35-7.88,17.13-13.58c2.14-2.56,3.96-5.27,4.86-8.57c1.48-5.43,1.34-10.62-2.67-14.95c-3.94-4.26-9.14-3.81-13.97-2.4
		c-6.98,2.04-13.69,4.97-20.64,7.14c-17.05,5.31-28.03-0.48-33.56-17.44c-0.77-2.36-1.38-4.77-2.17-7.13
		C151.9,323.25,150.33,321.33,144.95,317.68z M86.21,335.1c-0.33,2.94,0.44,6.39,1.07,9.81c2.91,15.75,7.24,31.01,16.55,44.34
		c5.96,8.53,12.31,8.12,17.43-0.95c3.97-7.03,5.82-14.81,6.98-22.69c2.23-15.12,4.12-30.3,6.24-45.43c0.81-5.77,0.91-5.92-4.78-5.18
		c-12.2,1.59-24.22,4.05-35.81,8.26C86.51,325.95,86.11,326.68,86.21,335.1z M59.68,412.77c-11.7,10.56-22.1,32.92-23.5,48.75
		c-1.19,13.43,0,26.24,8.1,37.5c4.04,5.61,9.07,10.19,16.21,11.82C47.26,478.14,51.61,445.7,59.68,412.77z"/>
	<path class="st1" d="M238.62,527.27c-9.56,0.03-18.91-1.02-27.58-5.44c-4.58-2.34-8.5-5.41-9.52-10.8
		c-0.3-1.59-1.08-2.19-2.29-2.82c-11.78-6.07-16.42-16.43-16.89-28.99c-0.43-11.52,2.05-22.84,2.99-34.27
		c0.18-2.13,1.44-3.62,3.61-4.28c2.19-0.66,3.9,0.04,5.32,1.69c2.73,3.17,6.23,5.01,10.33,5.45c10.7,1.14,18.45-8.4,15.53-19.26
		c-0.82-3.06-1.82-5.86,1.46-7.92c3.3-2.07,5.57,0.26,7.96,2.08c4.78,3.64,9.18,7.72,13.27,12.1c1.92,2.05,2.97,2.07,5.07,0.14
		c8.5-7.83,17.82-14.43,29.32-17.1c22.02-5.11,43.69,7.72,50.4,30.77c5.67,19.49,3.37,38.24-9.26,54.8
		c-7.26,9.52-18.15,12.87-29.19,15.78C272.57,523.57,255.79,526.65,238.62,527.27z M306.75,499.29c-0.98,0.71-1.96,1.41-2.93,2.12
		c-6.99,3.15-14.33,5.13-21.87,6.45c-20.05,3.51-40.14,1.78-60.22,0.38c-3.32-0.23-6.51-0.31-9.62,1.16
		c0.24,2.2,2.02,2.66,3.41,3.38c4.77,2.47,9.88,3.78,15.24,4.13c16.61,1.06,32.77-1.9,48.81-5.69c8.65-2.04,17.53-3.58,25.02-8.94
		c1.24-0.38,2.26-1.03,2.79-2.28c0.45-0.25,1.34-0.35,0.76-1.1C307.61,498.2,307.18,499.02,306.75,499.29z M194.36,455.59
		c-0.86,7.84-2.25,15.22-2.06,22.73c0.15,6.09,1.47,11.91,5.64,16.62c3.35,3.78,7.13,6.2,12.71,4.18c4.41-1.6,9.15-1.11,13.85-0.79
		c14.45,0.97,28.89,2.29,43.41,1.12c3.8-0.31,5.05-1.05,3.88-5.31c-2.15-7.82-4-15.75-3.59-24.05
		c0.62-12.56,10.85-22.72,22.17-21.14c8.87,1.24,13.87,7.85,18.4,14.8c1.96,3,2.61,5.92-0.86,8.19c-3.38,2.22-5.61,0.16-7.44-2.52
		c-2.16-3.16-4.13-6.45-7.36-8.7c-4.56-3.16-8.86-2.45-12.04,2.08c-1.85,2.64-2.8,5.56-2.87,8.85c-0.18,7.77,2.4,15.03,3.8,22.52
		c0.51,2.76,1.63,3.33,3.96,2.65c5.53-1.63,11.39-2.41,15.83-6.69c1.71-1.65,3.88-1.9,5.94-0.44c2.09,1.48,3.13,3.39,1.96,6
		c-0.32,0.7-1.03,1.37-0.3,2.27c1.78-0.77,2.71-2.4,3.58-3.95c8.63-15.43,10.14-31.51,3.04-47.79c-5.63-12.92-18.19-20.32-32-19.3
		c-12.69,0.94-21.94,8.73-30.96,16.72c-1.86,1.65-0.01,2.68,0.73,3.74c3.79,5.48,7.37,11.09,8.93,17.66
		c1.88,7.95,0.81,15.17-5.75,20.88c-2.57,2.24-5.32,3.2-7.92,0.55c-2.62-2.67-1.87-5.49,0.94-7.7c4.05-3.2,4.29-7.53,2.86-11.77
		c-4.1-12.15-12.67-21.08-21.9-29.95C226.69,452.65,214.49,462.53,194.36,455.59z"/>
	<path class="st0" d="M699.36,272.57c-0.02,15.72-6.84,26.97-15.11,37.57c-5.54,7.1-12.08,13.27-18.49,19.58
		c-3.34,3.29-7.1,3.84-11.44,2.44c-2.73-0.89-5.13-2.3-7.45-3.89c-8.87-6.07-9.57-11.4-2.67-19.69c1.06-1.27,2.09-2.58,3.05-3.93
		c4.69-6.62,4.63-7.51-0.7-13.34c-7.95-8.68-9.72-23.14-4.16-33.98c5.86-11.43,17.38-17.76,29.92-16.41
		c12.4,1.33,22.89,10.61,25.93,22.91C699.08,267.23,699.52,270.67,699.36,272.57z"/>
	<path class="st1" d="M305.5,373.97c-1.89,0.19-3.17-0.78-4.47-1.9c-35.81-30.83-71.64-61.63-107.46-92.44
		c-9.46-8.13-18.99-16.18-28.31-24.48c-2.42-2.15-3.79-1.92-6,0.18c-12.92,12.26-25.96,24.39-38.98,36.54
		c-1.21,1.13-2.47,2.27-3.9,3.07c-2.2,1.23-4.22,0.45-5.78-1.32c-1.45-1.65-1.83-3.59-0.53-5.5c0.74-1.08,1.68-2.05,2.64-2.96
		c14.85-13.86,29.76-27.64,44.53-41.59c3.56-3.36,6.41-2.99,9.91,0.03c26.81,23.17,53.71,46.25,80.57,69.36
		c19.93,17.15,39.82,34.32,59.78,51.43c2.08,1.79,3.46,3.74,2.54,6.45C309.34,372.85,307.77,374.12,305.5,373.97z"/>
	<path class="st2" d="M286.37,521.98c-0.53,1.25-1.55,1.91-2.79,2.28c-0.25-0.29-0.51-0.57-0.76-0.86c0.98-0.71,1.96-1.41,2.93-2.12
		C285.94,521.53,286.15,521.76,286.37,521.98z"/>
	<path class="st2" d="M285.75,521.29c0.44-0.26,0.86-1.09,1.38-0.4c0.58,0.75-0.32,0.85-0.76,1.1
		C286.15,521.76,285.94,521.53,285.75,521.29z"/>
</g>
</svg>
