<?xml version="1.0" encoding="utf-8"?>
<!-- Generator: Adobe Illustrator 26.0.2, SVG Export Plug-In . SVG Version: 6.00 Build 0)  -->
<svg version="1.1" id="Calque_1" xmlns="http://www.w3.org/2000/svg" xmlns:xlink="http://www.w3.org/1999/xlink" x="0px" y="0px"
	 viewBox="0 0 1366 768" style="enable-background:new 0 0 1366 768;" xml:space="preserve">
<style type="text/css">
	.st0{fill:#1E2424;}
	.st1{fill:#FEFEFE;}
</style>
<g>
	<path class="st0" d="M649.91,317.45c-1.62,12.67-3.05,24.71-4.72,36.71c-1.72,12.32-3.48,24.65-8.86,36.1
		c-2.01,4.28-4.55,8.11-8.28,11.06c-7.31,5.76-15.83,5.4-22.61-0.91c-6.11-5.68-9.76-12.95-13.16-20.38
		c-0.96-2.09-1.78-4.24-3.15-7.55c-2.35,6.24-4.4,11.47-6.3,16.76c-9.68,27.04-17.03,54.53-15.56,83.62
		c0.5,9.8,1.71,19.56,5.57,28.71c2.25,5.32,5.14,10.03,11.96,10.51c2.71,0.19,4.49,2.31,4.32,5.23c-0.18,2.95-2.29,4.09-4.96,4.74
		c-15.31,3.76-34.14-4.05-43.83-18.51c-9.71-14.49-11.37-30.62-8.62-47.34c4.18-25.42,17.37-45.64,36.83-62.02
		c1.87-1.58,3.01-3.28,3.83-5.54c2.99-8.25,5.89-16.55,9.44-24.56c2.15-4.84,2.56-9.36,1.18-14.36c-1.74-6.3-1.99-12.8-1.79-19.31
		c0.21-6.73,2.98-11.67,9.37-14.54c11.91-5.34,24.42-8.41,37.28-10.21c6.1-0.85,12.23-1.54,18.39-0.31
		c11.14,2.23,18.2,9.01,21.91,19.53c0.88,2.49,1.39,5.12,2.22,7.63c3.49,10.65,9.03,13.65,19.79,10.38
		c6.33-1.92,12.5-4.35,18.77-6.46c2.19-0.74,4.44-1.43,6.72-1.74c8.76-1.17,16.73,0.35,22.14,8.1c5.73,8.21,5.85,17.16,2.02,26.1
		c-3.44,8.04-9.69,13.84-16.76,18.73c-4.37,3.02-8.73,6.08-13.3,8.79c-14.68,8.7-21.69,22.2-23.47,38.5
		c-2.99,27.45-5.47,54.96-7.98,82.47c-0.4,4.39-2.26,6.26-6.54,6.25c-16.33-0.07-32.66-0.03-48.99-0.12
		c-4.68-0.03-6.61-2.07-6.44-6.83c0.44-12.15,1.03-24.3,1.55-36.45c0.18-4.15,0.77-8.29-0.33-12.42c-1.66-6.29-6.98-9.69-13.18-8.32
		c-5.21,1.15-8.46,6.95-7.24,12.94c0.13,0.64,0.37,1.27,0.6,1.89c1.16,3.13,0.52,5.85-2.66,7.01c-3.4,1.24-5.58-0.56-6.91-3.85
		c-2.95-7.29-1.19-16.83,4.7-22.63c6.04-5.96,13.28-7.2,21.17-4.39c9.01,3.2,14.17,10.7,14.05,21.32
		c-0.14,12.49-0.66,24.98-1.38,37.45c-0.21,3.69,0.89,4.53,4.31,4.4c5.82-0.24,11.66-0.12,17.49,0c2.4,0.05,3.51-0.28,3.33-3.23
		c-1.53-24.27-2.87-48.54-4.27-72.82c-0.05-0.83-0.18-1.67-0.13-2.49c0.19-3.03,1.69-5.17,4.8-5.38c3.19-0.22,4.96,1.69,5.16,4.83
		c0.64,9.8,1.22,19.61,1.8,29.42c0.91,15.29,1.79,30.59,2.69,45.88c0.11,1.91-0.32,3.82,2.94,3.91c3.27,0.08,3.86-1.31,4.1-3.99
		c2.04-22.7,4.07-45.41,6.29-68.09c1.47-15.03,4.64-29.54,14.73-41.55c5.44-6.47,12.48-10.91,19.48-15.4
		c6.16-3.96,12.35-7.88,17.13-13.58c2.14-2.56,3.96-5.27,4.86-8.57c1.48-5.43,1.34-10.62-2.67-14.95c-3.94-4.26-9.14-3.81-13.97-2.4
		c-6.98,2.04-13.69,4.97-20.64,7.14c-17.05,5.31-28.03-0.48-33.56-17.44c-0.77-2.36-1.38-4.77-2.17-7.13
		C656.85,323.02,655.29,321.1,649.91,317.45z M591.17,334.87c-0.33,2.94,0.44,6.39,1.07,9.81c2.91,15.75,7.24,31.01,16.55,44.34
		c5.96,8.53,12.31,8.12,17.43-0.95c3.97-7.03,5.82-14.81,6.98-22.69c2.23-15.12,4.12-30.3,6.24-45.43c0.81-5.77,0.91-5.92-4.78-5.18
		c-12.2,1.59-24.22,4.05-35.81,8.26C591.47,325.72,591.07,326.45,591.17,334.87z M564.64,412.54c-11.7,10.56-22.1,32.92-23.5,48.75
		c-1.19,13.43,0,26.24,8.1,37.5c4.04,5.61,9.07,10.19,16.21,11.82C552.22,477.91,556.57,445.47,564.64,412.54z"/>
	<path class="st0" d="M743.58,527.04c-9.56,0.03-18.91-1.02-27.58-5.44c-4.58-2.34-8.5-5.41-9.52-10.8
		c-0.3-1.59-1.08-2.19-2.29-2.82c-11.78-6.07-16.42-16.43-16.89-28.99c-0.43-11.52,2.05-22.84,2.99-34.27
		c0.18-2.13,1.44-3.62,3.61-4.28c2.19-0.66,3.9,0.04,5.32,1.69c2.73,3.17,6.23,5.01,10.33,5.45c10.7,1.14,18.45-8.4,15.53-19.26
		c-0.82-3.06-1.82-5.86,1.46-7.92c3.3-2.07,5.57,0.26,7.96,2.08c4.78,3.64,9.18,7.72,13.27,12.1c1.92,2.05,2.97,2.07,5.07,0.14
		c8.5-7.83,17.82-14.43,29.32-17.1c22.02-5.11,43.69,7.72,50.4,30.77c5.67,19.49,3.37,38.24-9.26,54.8
		c-7.26,9.52-18.15,12.87-29.19,15.78C777.53,523.34,760.75,526.42,743.58,527.04z M811.71,499.06c-0.98,0.71-1.96,1.41-2.93,2.12
		c-6.99,3.15-14.33,5.13-21.87,6.45c-20.05,3.51-40.14,1.78-60.22,0.38c-3.32-0.23-6.51-0.31-9.62,1.16
		c0.24,2.2,2.02,2.66,3.41,3.38c4.77,2.47,9.88,3.78,15.24,4.13c16.61,1.06,32.77-1.9,48.81-5.69c8.65-2.04,17.53-3.58,25.02-8.94
		c1.24-0.38,2.26-1.03,2.79-2.28c0.45-0.25,1.34-0.35,0.76-1.1C812.56,497.97,812.14,498.79,811.71,499.06z M699.32,455.36
		c-0.86,7.84-2.25,15.22-2.06,22.73c0.15,6.09,1.47,11.91,5.64,16.62c3.35,3.78,7.13,6.2,12.71,4.18c4.41-1.6,9.15-1.11,13.85-0.79
		c14.45,0.97,28.89,2.29,43.41,1.12c3.8-0.31,5.05-1.05,3.88-5.31c-2.15-7.82-4-15.75-3.59-24.05
		c0.62-12.56,10.85-22.72,22.17-21.14c8.87,1.24,13.87,7.85,18.4,14.8c1.96,3,2.61,5.92-0.86,8.19c-3.38,2.22-5.61,0.16-7.44-2.52
		c-2.16-3.16-4.13-6.45-7.36-8.7c-4.56-3.16-8.86-2.45-12.04,2.08c-1.85,2.64-2.8,5.56-2.87,8.85c-0.18,7.77,2.4,15.03,3.8,22.52
		c0.51,2.76,1.63,3.33,3.96,2.65c5.53-1.63,11.39-2.41,15.83-6.69c1.71-1.65,3.88-1.9,5.94-0.44c2.09,1.48,3.13,3.39,1.96,6
		c-0.32,0.7-1.03,1.37-0.3,2.27c1.78-0.77,2.71-2.4,3.58-3.95c8.63-15.43,10.14-31.51,3.04-47.79c-5.63-12.92-18.2-20.32-32-19.3
		c-12.69,0.94-21.94,8.73-30.96,16.72c-1.86,1.65-0.01,2.68,0.73,3.74c3.79,5.48,7.37,11.09,8.93,17.66
		c1.88,7.95,0.81,15.17-5.75,20.88c-2.57,2.24-5.32,3.2-7.92,0.55c-2.62-2.67-1.87-5.49,0.94-7.7c4.05-3.2,4.29-7.53,2.86-11.77
		c-4.1-12.15-12.67-21.08-21.9-29.95C731.65,452.42,719.45,462.3,699.32,455.36z"/>
	<path class="st0" d="M810.46,373.74c-1.89,0.19-3.17-0.78-4.47-1.9c-35.81-30.83-71.64-61.63-107.46-92.44
		c-9.46-8.13-18.99-16.18-28.31-24.48c-2.42-2.15-3.79-1.92-6,0.18c-12.92,12.26-25.96,24.39-38.98,36.54
		c-1.21,1.13-2.47,2.27-3.9,3.07c-2.2,1.23-4.22,0.45-5.78-1.32c-1.45-1.65-1.83-3.59-0.53-5.5c0.74-1.08,1.68-2.05,2.64-2.96
		c14.85-13.86,29.76-27.64,44.53-41.59c3.56-3.36,6.41-2.99,9.91,0.03c26.81,23.17,53.71,46.25,80.57,69.36
		c19.93,17.15,39.82,34.32,59.78,51.43c2.08,1.79,3.46,3.74,2.54,6.45C814.3,372.62,812.73,373.89,810.46,373.74z"/>
	<path class="st1" d="M791.33,521.75c-0.53,1.25-1.55,1.91-2.79,2.28c-0.25-0.29-0.51-0.57-0.76-0.86c0.98-0.71,1.96-1.41,2.93-2.12
		C790.9,521.3,791.11,521.53,791.33,521.75z"/>
	<path class="st1" d="M790.71,521.06c0.44-0.26,0.86-1.09,1.38-0.4c0.58,0.75-0.32,0.85-0.76,1.1
		C791.11,521.53,790.9,521.3,790.71,521.06z"/>
</g>
</svg>
